<svg width="235" height="202" viewBox="0 0 235 202" fill="none" xmlns="http://www.w3.org/2000/svg">
<path d="M220.975 84.8159H13.394C5.99674 84.8159 6.10352e-05 90.8126 6.10352e-05 98.2099V126.416C6.10352e-05 133.814 5.99674 139.81 13.394 139.81H220.975C228.372 139.81 234.369 133.814 234.369 126.416V98.2099C234.369 90.8126 228.372 84.8159 220.975 84.8159Z" fill="white"/>
<path d="M164.228 202H71.1639C76.1545 188.18 93.9018 171.281 117.827 171.558C130.553 171.707 141.665 176.03 151.235 184.356C156.804 189.216 161.24 195.239 164.228 202V202Z" fill="white"/>
<path d="M155.67 28.963H79.2897C80.9593 23.108 84.0286 17.7473 88.2327 13.3435C95.3666 5.72654 104.202 1.5223 114.573 0.643414C132.855 -0.893346 152.864 12.8604 155.67 28.963Z" fill="white"/>
<path d="M155.732 51.8857C152.437 64.3289 138.144 81.1407 115.817 80.2053C95.675 79.3624 82.4095 63.82 79.449 51.8857H155.732Z" fill="white"/>
<path d="M167.322 33.6968V47.1421H67.3811V33.6968H167.322Z" fill="white"/>
<path d="M120.268 165.508H114.352C111.336 138.602 109.28 111.655 109.593 84.7334H124.575C125.069 111.609 123.116 138.474 120.268 165.508Z" fill="white"/>
<path d="M66.9391 52.333C69.9355 52.333 72.3922 52.333 74.849 52.333C75.2756 52.333 75.7022 52.4255 76.3909 52.5129C74.7942 93.1094 83.7183 131.314 103.163 167.127C101.75 167.554 100.527 168.073 99.2573 168.227C98.7793 168.284 97.9929 167.626 97.6845 167.091C92.2995 157.875 87.5862 148.281 83.5813 138.386C75.6211 118.831 70.5399 98.2236 68.4964 77.209C67.7049 69.0472 67.4582 60.834 66.9391 52.333Z" fill="white"/>
<path d="M158.245 52.436H167.425C167.425 53.2687 167.425 54.0036 167.425 54.7386C167.132 71.8537 165.369 88.7786 161.478 105.483C156.583 126.364 148.733 146.44 138.165 165.103C136.047 168.875 136.006 168.849 131.586 166.958C151.014 131.273 159.808 93.0856 158.245 52.436Z" fill="white"/>
<path d="M23.7525 118.709V128.57H17.305V99.9449H27.4054C34.6182 99.9449 38.2245 102.986 38.2245 109.067C38.2245 111.942 37.1865 114.271 35.1105 116.054C33.0479 117.824 30.2865 118.709 26.8266 118.709H23.7525ZM23.7525 104.895V113.818H26.2876C29.721 113.818 31.4376 112.314 31.4376 109.307C31.4376 106.366 29.721 104.895 26.2876 104.895H23.7525Z" fill="#E10000"/>
<path d="M59.4634 128.57H42.4164V99.9449H48.8639V123.34H59.4634V128.57Z" fill="#E10000"/>
<path d="M88.5072 128.57H81.4808L79.4448 122.202H69.2645L67.2484 128.57H60.2619L70.6817 99.9449H78.3269L88.5072 128.57ZM77.9676 117.251L74.8936 107.63C74.6673 106.911 74.5076 106.053 74.4145 105.055H74.2548C74.1883 105.893 74.0219 106.725 73.7558 107.55L70.6418 117.251H77.9676Z" fill="#E10000"/>
<path d="M113.659 99.9449L104.337 118.389V128.57H97.8891V118.509L88.8066 99.9449H96.1724L100.783 110.624C100.863 110.824 101.083 111.602 101.442 112.96H101.522C101.695 112.002 101.901 111.25 102.141 110.704L106.832 99.9449H113.659Z" fill="#E10000"/>
<path d="M134.079 128.57H116.912V99.9449H133.42V105.195H123.36V111.562H132.722V116.792H123.36V123.34H134.079V128.57Z" fill="#E10000"/>
<path d="M162.684 128.57H155.278L150.827 121.204C150.494 120.645 150.175 120.146 149.868 119.707C149.562 119.268 149.25 118.895 148.93 118.589C148.624 118.269 148.298 118.03 147.952 117.87C147.62 117.697 147.254 117.611 146.854 117.611H145.118V128.57H138.67V99.9449H148.89C155.837 99.9449 159.31 102.54 159.31 107.73C159.31 108.728 159.157 109.653 158.851 110.504C158.545 111.343 158.113 112.101 157.554 112.78C156.995 113.459 156.316 114.044 155.518 114.537C154.732 115.029 153.854 115.415 152.883 115.694V115.774C153.308 115.907 153.721 116.127 154.12 116.433C154.519 116.726 154.905 117.072 155.278 117.471C155.651 117.87 156.003 118.303 156.336 118.768C156.682 119.221 156.995 119.667 157.274 120.106L162.684 128.57ZM145.118 104.776V112.74H147.912C149.296 112.74 150.407 112.341 151.246 111.542C152.097 110.731 152.523 109.726 152.523 108.528C152.523 106.026 151.026 104.776 148.032 104.776H145.118Z" fill="#E10000"/>
<path d="M194.901 128.57H176.796V123.579H182.725V105.754L176.637 107.071V101.961L189.013 99.4658V123.579H194.901V128.57Z" fill="#E10000"/>
<path d="M218.416 128.57H200.311V123.579H206.239V105.754L200.151 107.071V101.961L212.527 99.4658V123.579H218.416V128.57Z" fill="#E10000"/>
</svg>
